<?xml version="1.0" encoding="utf-8"?>
<!-- Generator: Adobe Illustrator 19.1.0, SVG Export Plug-In . SVG Version: 6.00 Build 0)  -->
<svg version="1.1" id="レイヤー_1" xmlns="http://www.w3.org/2000/svg" xmlns:xlink="http://www.w3.org/1999/xlink" x="0px"
	 y="0px" width="365.1px" height="96.1px" viewBox="0 0 365.1 96.1" style="enable-background:new 0 0 365.1 96.1;"
	 xml:space="preserve">
<style type="text/css">
	.st0{clip-path:url(#XMLID_6_);fill:#CA245C;}
	.st1{clip-path:url(#XMLID_6_);fill:none;}
	.st2{clip-path:url(#XMLID_6_);}
	.st3{fill:#FFFFFF;}
	.st4{fill:#CA245C;}
</style>
<g>
	<g id="XMLID_19_">
		<defs>
			<circle id="XMLID_1_" cx="35.5" cy="40" r="35.5"/>
		</defs>
		<clipPath id="XMLID_6_">
			<use xlink:href="#XMLID_1_"  style="overflow:visible;"/>
		</clipPath>
		<circle id="XMLID_17_" class="st0" cx="35.5" cy="40" r="35.5"/>
		<circle id="XMLID_5_" class="st1" cx="35.5" cy="40" r="35.5"/>
		<circle id="XMLID_4_" class="st1" cx="35.5" cy="40" r="35.5"/>
		<circle id="XMLID_3_" class="st1" cx="35.5" cy="40" r="35.5"/>
		<g id="XMLID_18_" class="st2">
			<path id="XMLID_22_" class="st3" d="M13.7,67.1v-1.6c1.2-2.1,1.1-4.2,1.1-5.1c0-1.6,0.6-2.5,1.3-3.5c0.7-1,1.6-3.6,0-3.8
				c-0.5-0.1-1.5,0.6-2.4,2v-1.4l10.1-9.9l0-0.1c0-0.1-0.2-0.4-1.4-0.6c-1.7-0.3-4.9-0.5-9.1-0.5s-7.4,0.2-9.1,0.5
				c-1.2,0.2-1.4,0.5-1.4,0.6l0,0.1l10.1,9.9V55c-0.2-0.6,0-1.3-2.4-0.9l-7.7,4.5l-1.4,5l2.2,2.2h4c-3.1,3.4-5.6,5.4-1.3,4.5
				c0.5-0.1,1-0.2,1.4-0.4c0.3,0.3,0.8,0.5,1.5,0.8c1.1,0.4,2.7,0.6,4.3,0.6c0,0,0,0,0,0c3,0,6.2-0.8,6.2-2.1
				C19.4,68.1,17,67.2,13.7,67.1z M12.2,67.4c0.2,0,0.3,0,0.5,0v0C12.6,67.4,12.4,67.4,12.2,67.4C12.2,67.4,12.2,67.4,12.2,67.4z
				 M12.5,67.1c0.1-0.1,0.2-0.2,0.3-0.3v0.3C12.7,67.1,12.6,67.1,12.5,67.1z M2.9,43.7c0.2-0.2,1.7-0.9,10.3-0.9
				c8.6,0,10.1,0.7,10.3,0.9l-10.1,9.9v1.9c-0.1,0.2-0.2,0.4-0.4,0.6c0-0.1-0.1-0.3-0.1-0.4v-2.1L2.9,43.7z M17.5,70.5
				c-0.9,0.3-2,0.5-3.3,0.6c0.2-0.1,0.1-0.1-1-0.1c-2,0-4.1-0.3-5.4-1.1c1.2-0.4,2.3-0.9,3.1-1.5c0.8,0.1,1.5,0.1,1.8,0.1v0h0.1h0
				H13v-2c0.2-0.2,0.3-0.5,0.5-0.7v2.7h0.2v-1.2c3.4,0,5.5,1,5.5,1.8C19.2,69.7,18.6,70.2,17.5,70.5z"/>
			<path id="XMLID_31_" class="st3" d="M20,46.7c0,0-0.4-0.7-6.7-0.7s-6.7,0.7-6.7,0.7l6.7,6.8L20,46.7z M17.3,47.9
				c0.2,0,0.3,0.1,0.3,0.3s-0.1,0.3-0.3,0.3c-0.2,0-0.3-0.1-0.3-0.3S17.1,47.9,17.3,47.9z M15.5,49.2c0.1,0,0.2,0.1,0.2,0.2
				c0,0.1-0.1,0.2-0.2,0.2c-0.1,0-0.2-0.1-0.2-0.2C15.3,49.3,15.4,49.2,15.5,49.2z M11.7,50.1V50h1.5v-0.4c-0.8,0-1.4-0.7-1.4-1.5
				c0-0.8,0.7-1.5,1.5-1.5c0.8,0,1.5,0.7,1.5,1.5c0,0.8-0.6,1.4-1.4,1.5V50h1.5v0.2h-1.5v1.8h-0.2v-1.8H11.7z"/>
			<circle id="XMLID_34_" class="st3" cx="13.2" cy="48.1" r="1.3"/>
			<path id="XMLID_35_" class="st3" d="M67.5,24.2c-0.7-1.3-3.3-6-7.5-10.4c-2.6-5-8.2-9.1-18.8-9.1c-0.7,0-1.6,0.1-2.6,0.4
				c-9.8,1-16.9,6.6-15.6,15.2c0.4,2.4,1.2,3.9,2.2,4.9c0,0.1,0,0.1,0.1,0.2c0.7,1.2,0.8,2.4,0.5,3.4c-0.7,0.2-1.9,0.7-2.9,0.3
				c0.7,0.3,1.9,0.3,2.8,0.2c-0.8,2-2.8,3.6-3.7,4.1c-1.4,0.8,0.3,3,1.4,3.3c1.1,0.3,1.4,1.7,0.9,2.2c-0.5,0.5-1,1.1,0.1,1.9
				c0.6,0.5,0.9,0.5,1.1,0.5c-0.9,0.6-1,1-1.1,1.5c-0.1,0.6,0.2,0.8,0.8,0.8c0.6,0,0.3,2.8-0.4,4.2c-0.6,1.4,2.5,2.2,6.6,0.9
				s5.1-1.5,5.4-1c0.3,0.5,2,11.5-0.7,14.9c-2.4,2.9-13.2,10.1-14.4,11c-1.1,0.8,7,3.7,14.7,3.7S55.6,70,57,68.6
				c1.4-1.4-2.6-4.1-4.8-7.9c-1.4-2.4-1.4-7.4-0.9-11.6c1.1,0.1,3.9-2.3,5-9.1c1.3,5.5-0.6,7.8-1.8,9c1.4,0.7,3.8-0.6,4.5-0.7
				c1.6-0.4,3.8-9.2,3.4-14.8c2.6,3.8,0.3,12.1-1.3,14.1C71.9,45.7,68.6,26.4,67.5,24.2z"/>
		</g>
	</g>
	<g id="XMLID_1174_">
		<rect id="XMLID_1188_" x="110.2" class="st4" width="0.8" height="73.8"/>
		<rect id="XMLID_1187_" x="176" y="29.6" class="st4" width="0.8" height="66.5"/>
		<rect id="XMLID_1186_" x="150.4" y="34.8" class="st4" width="0.8" height="39"/>
		<rect id="XMLID_7_" x="88.6" y="29.2" class="st4" width="43.6" height="0.8"/>
		<path id="XMLID_1183_" class="st4" d="M150.8,24.6c-2.8,0-5.2-2.3-5.2-5.2c0-2.8,2.3-5.2,5.2-5.2c2.8,0,5.2,2.3,5.2,5.2
			C156,22.3,153.7,24.6,150.8,24.6z M150.8,15.1c-2.4,0-4.4,2-4.4,4.4c0,2.4,2,4.4,4.4,4.4c2.4,0,4.4-2,4.4-4.4
			C155.2,17,153.2,15.1,150.8,15.1z"/>
		<path id="XMLID_1182_" class="st4" d="M202.4,73.9c-12.5,0-22.6-10.1-22.6-22.6c0-12.5,10.1-22.6,22.6-22.6
			c12.5,0,22.6,10.1,22.6,22.6C225,63.7,214.8,73.9,202.4,73.9z M202.4,29.5c-12,0-21.8,9.8-21.8,21.8S190.4,73,202.4,73
			c12,0,21.8-9.8,21.8-21.8S214.4,29.5,202.4,29.5z"/>
		<rect id="XMLID_1179_" x="318.8" y="29.1" class="st4" width="0.8" height="67.1"/>
		<path id="XMLID_1178_" class="st4" d="M300.2,73.9c-10.6,0-19.3-8.7-19.3-19.3h0.8c0,10.2,8.3,18.5,18.5,18.5
			c10.2,0,18.5-8.3,18.5-18.5h0.8C319.6,65.2,310.9,73.9,300.2,73.9z"/>
		<g id="XMLID_1177_">
			<path id="XMLID_1176_" class="st4" d="M253.8,73.5c-0.3,0-0.5,0-0.8,0c-4-0.2-12-2.7-13.9-10.5l0.8-0.2c1.8,7.3,9.4,9.7,13.2,9.9
				c3.7,0.2,7.2-1.1,9.9-3.6c2.6-2.4,4.1-5.7,4.2-9.1c0.1-3.7-1.2-7-3.6-9.5c-2.5-2.5-5.9-3.9-9.9-3.9c-4.3,0-8-1.4-10.5-4
				c-2.5-2.5-3.8-6.2-3.7-10.2c0.2-7.6,6.7-13.5,14.9-13.5v0.8c-7.8,0-13.9,5.6-14.1,12.7c-0.1,3.8,1.1,7.2,3.5,9.6
				c2.4,2.4,5.8,3.7,9.9,3.7c4.3,0,7.9,1.4,10.5,4.1c2.5,2.6,3.9,6.2,3.8,10.1c-0.1,3.7-1.7,7.1-4.4,9.7
				C260.8,72.2,257.4,73.5,253.8,73.5z"/>
		</g>
		<g id="XMLID_1175_">
			<path id="XMLID_1207_" class="st4" d="M351,73.5c-0.3,0-0.5,0-0.8,0c-4-0.2-12-2.7-13.9-10.5l0.8-0.2c1.8,7.3,9.4,9.7,13.2,9.9
				c0.3,0,0.5,0,0.8,0c3.4,0,6.6-1.3,9.1-3.6c2.6-2.4,4.1-5.7,4.2-9.1c0.1-3.7-1.2-7-3.6-9.5c-2.5-2.5-5.9-3.9-9.9-3.9
				c-4.3,0-8-1.4-10.5-4c-2.5-2.5-3.8-6.2-3.7-10.2c0.2-7.6,6.7-13.5,14.9-13.5v0.8c-7.8,0-13.9,5.6-14.1,12.7
				c-0.1,3.8,1.1,7.2,3.5,9.6c2.4,2.4,5.8,3.7,9.9,3.7c4.3,0,7.9,1.4,10.5,4.1c2.5,2.6,3.9,6.2,3.8,10.1c-0.1,3.7-1.7,7.1-4.4,9.7
				C358,72.2,354.6,73.5,351,73.5z"/>
		</g>
	</g>
</g>
</svg>
